<?xml version="1.0" encoding="UTF-8" standalone="no"?>
<!DOCTYPE svg PUBLIC "-//W3C//DTD SVG 1.1//EN" "http://www.w3.org/Graphics/SVG/1.1/DTD/svg11.dtd">
<svg width="100%" height="100%" viewBox="0 0 26 26" version="1.1" xmlns="http://www.w3.org/2000/svg" xmlns:xlink="http://www.w3.org/1999/xlink" xml:space="preserve" xmlns:serif="http://www.serif.com/" style="fill-rule:evenodd;clip-rule:evenodd;stroke-linejoin:round;stroke-miterlimit:2;">
    <path d="M19.5,12.398C19.699,12.699 19.898,13 20,13.5L16.801,13.5C16.801,13.398 16.801,13.199 16.898,13C17,12.801 17,12.699 17.199,12.5C17.301,12.301 17.5,12.199 17.699,12.102C17.898,12 18.199,11.898 18.5,11.898C18.898,12 19.301,12.102 19.5,12.398ZM10.301,11.699C10.5,11.5 10.699,11.199 10.699,10.801C10.699,10.602 10.699,10.398 10.602,10.199C10.5,10.102 10.398,9.898 10.301,9.898C10.199,9.801 10,9.801 9.801,9.699L7.199,9.699L7.199,12L9.398,12C9.699,12 10,11.898 10.301,11.699ZM9.5,13.398L7.199,13.398L7.199,16.102L9.5,16.102C9.699,16.102 9.898,16.102 10.102,16C10.301,16 10.5,15.898 10.602,15.801C10.699,15.699 10.898,15.602 11,15.398C11.102,15.199 11.102,15 11.102,14.801C11.102,14.301 11,13.898 10.699,13.699C10.398,13.5 10,13.398 9.5,13.398ZM26,4.898L26,21.102C26,23.801 23.801,26 21.102,26L4.898,26C2.199,26 0,23.801 0,21.102L0,4.898C0,2.199 2.199,0 4.898,0L21.102,0C23.801,0 26,2.199 26,4.898ZM16.398,9.602L20.398,9.602L20.398,8.602L16.398,8.602L16.398,9.602ZM13.199,15C13.199,14.398 13.102,13.898 12.801,13.398C12.5,13 12.102,12.699 11.5,12.5C11.898,12.301 12.301,12 12.5,11.699C12.699,11.398 12.801,11 12.801,10.5C12.801,10 12.699,9.699 12.602,9.301C12.398,9 12.199,8.699 12,8.602C11.699,8.398 11.398,8.301 11,8.199C10.5,8 10.102,8 9.602,8L5,8L5,17.801L9.801,17.801C10.199,17.801 10.699,17.699 11.102,17.602C11.5,17.5 11.898,17.301 12.199,17.102C12.5,16.898 12.801,16.602 13,16.199C13.102,15.898 13.199,15.5 13.199,15ZM16.801,14.699L21.898,14.699C21.898,14.102 21.898,13.602 21.801,13.102C21.699,12.602 21.5,12.102 21.199,11.801C20.898,11.398 20.5,11.102 20.102,10.898C19.602,10.699 19.102,10.5 18.5,10.5C18,10.5 17.5,10.602 17,10.801C16.602,11 16.199,11.301 15.801,11.602C15.5,11.898 15.199,12.301 15.102,12.801C14.898,13.301 14.801,13.801 14.801,14.301C14.801,14.801 14.898,15.398 15.102,15.801C15.301,16.301 15.5,16.699 15.801,17C16.102,17.301 16.5,17.602 16.898,17.801C17.398,18 17.898,18.102 18.398,18.102C19.199,18.102 19.898,17.898 20.5,17.5C21.102,17.102 21.5,16.5 21.801,15.699L20.102,15.699C20,15.898 19.898,16.102 19.602,16.301C19.301,16.5 19,16.602 18.602,16.602C18.102,16.602 17.602,16.5 17.301,16.199C17,15.801 16.801,15.301 16.801,14.699Z" style="fill:rgb(229,231,228);fill-rule:nonzero;"/>
</svg>
