<svg xmlns="http://www.w3.org/2000/svg" xmlns:xlink="http://www.w3.org/1999/xlink" aria-hidden="true" focusable="false" role="img" class="iconify iconify--whh" width="1em" height="1em" preserveAspectRatio="xMidYMid meet" viewBox="0 0 1024 1025" style="transform: rotate(360deg);"><path d="M960 1025H704q-27 0-45.5-19T640 961V705q0-27-19-45.5T576 641H448q-27 0-45.5 18.5T384 705v256q0 26-19 45t-45 19H63q-23 0-43-19.5T0 962q0-18 9-33l425-596L265 97q-14-23-7-48.5T288 10t48.5-6.5T375 33l137 191L648 32q13-22 39-29t48.5 6T765 47.5T759 96L590 333l425 597q9 16 9 31q0 24-19.5 44t-44.5 20z" fill="#177373"></path></svg>