<svg fill="none" height="24" viewBox="0 0 24 24" width="24" xmlns="http://www.w3.org/2000/svg"><g fill="#E5E7E4"><path d="m18.4332 12.8664c-1.2856-.3837-2.7656-.8971-4.1607-2.0772l-1.2109 1.211 6.5212 6.5209c1.0778-1.2504 1.7953-2.7043 2.1525-4.2255-.0023-.0023-.0047-.0046-.0071-.0069-.0028-.0027-.0057-.0055-.0085-.0084-.3401-.3401-.7786-.5871-1.3385-.8039-.4357-.1687-.9015-.3042-1.426-.4568-.1677-.0488-.3414-.0993-.522-.1532z"/><path d="m18.5222 4.41825-4.2454 4.24538c-.9203-1.1253-1.3493-2.3313-1.7059-3.52589-.0459-.15372-.0913-.31011-.1371-.46761-.1566-.53892-.317-1.0908-.5114-1.59288-.1403-.36238-.3057-.72062-.5154-1.0597 2.5199-.14904 5.0855.6512 7.1152 2.4007z"/><path d="m19.5828 5.47892-4.2452 4.24526c1.1249.91962 2.3305 1.34842 3.5247 1.70492.1536.0458.3098.0912.4672.137.5389.1566 1.0912.3171 1.5932.5114.3628.1405.7214.3061 1.0607.5161.149-2.5197-.6512-5.08512-2.4006-7.11468z"/><path d="m9.71967 2.28033-.0143-.01469c-1.5214.35726-2.97536 1.07487-4.22588 2.15284l6.52141 6.52102 1.2109-1.21086c-1.1809-1.39543-1.6944-2.87588-2.0782-4.16189-.0539-.18053-.1044-.35412-.1532-.5217-.1525-.52455-.2881-.99055-.4568-1.42625-.2168-.55993-.4638-.99836-.80393-1.33847z"/><path d="m2.13105 10.3877c.28715-1.76713 1.04976-3.47202 2.28783-4.90852l6.52132 6.52102-1.08869 1.0887c-1.47412-1.1933-3.19192-1.6157-4.66204-1.9113-.20754-.0417-.40773-.0805-.60124-.1179-.60692-.1175-1.14811-.2223-1.64405-.3662-.31373-.091-.58322-.1911-.81313-.3058z"/><path d="m2.00105 11.9621c-.0088 2.3381.79725 4.6786 2.41814 6.5591l4.36435-4.3644c-1.14126-.8731-2.49705-1.2286-3.88976-1.5086-.17823-.0359-.35951-.0709-.54186-.1062-.62255-.1203-1.25749-.2431-1.82561-.4078-.17602-.0511-.35183-.1077-.52526-.1721z"/><path d="m9.84736 15.2143-4.36751 4.3675c1.93365 1.6667 4.35369 2.4718 6.75725 2.4154-.1511-.3015-.2691-.6159-.3673-.9317-.1659-.5335-.2897-1.125-.4101-1.7004-.0352-.1677-.07-.3341-.1055-.4973-.2772-1.2743-.6292-2.5324-1.50684-3.6535z"/><path d="m13.8945 21.8201c1.6665-.3198 3.2674-1.0659 4.6277-2.2383l-6.5213-6.521-1.0866 1.0867c1.183 1.4392 1.6079 3.0326 1.9056 4.4015.0421.1934.0811.3793.1187.5585.1172.5593.2209 1.0538.3636 1.5125.1566.5037.3422.8964.5923 1.2001z"/></g></svg>